<svg xmlns="http://www.w3.org/2000/svg" xmlns:xlink="http://www.w3.org/1999/xlink" width="1000" zoomAndPan="magnify" viewBox="0 0 750 449.999984" height="600" preserveAspectRatio="xMidYMid meet" version="1.0"><defs><g/><clipPath id="52d1d7d841"><path d="M 11 115 L 308.53125 115 L 308.53125 345.414062 L 11 345.414062 Z M 11 115 " clip-rule="nonzero"/></clipPath></defs><g clip-path="url(#52d1d7d841)"><path fill="#fbdc6a" d="M 247.039062 278.984375 C 244.367188 277.382812 241.160156 278.449219 239.554688 281.125 C 231.539062 295.019531 220.847656 306.78125 207.484375 315.867188 C 184.5 331.367188 156.707031 337.246094 129.445312 332.4375 C 111.273438 329.230469 95.238281 321.210938 81.339844 309.453125 L 94.703125 305.175781 C 102.183594 303.039062 109.667969 299.832031 116.617188 297.160156 C 125.703125 293.417969 134.257812 289.140625 143.34375 284.332031 C 144.414062 283.796875 146.015625 283.261719 147.085938 282.726562 C 158.308594 277.917969 166.863281 272.570312 173.277344 267.761719 C 172.742188 270.96875 170.601562 277.382812 165.257812 283.796875 C 159.378906 290.746094 151.894531 293.417969 148.6875 294.484375 C 155.101562 294.484375 166.328125 293.953125 179.15625 288.605469 C 190.914062 283.261719 198.933594 275.777344 202.675781 271.503906 C 202.675781 266.691406 202.675781 252.792969 194.121094 239.429688 C 184.5 224.464844 170.601562 219.121094 165.792969 217.515625 C 159.914062 220.1875 149.757812 225 140.671875 235.15625 C 128.910156 247.984375 125.167969 261.878906 124.101562 268.292969 C 125.703125 265.621094 131.582031 256.535156 143.34375 253.328125 C 148.6875 251.726562 153.5 252.257812 156.707031 252.792969 C 149.757812 257.605469 142.273438 263.484375 134.789062 269.363281 C 126.773438 274.710938 118.753906 279.519531 110.203125 283.796875 C 103.789062 287.539062 96.839844 290.746094 89.890625 293.417969 L 72.253906 300.902344 C 68.511719 297.160156 65.304688 293.417969 62.632812 288.605469 C 47.128906 265.621094 41.25 237.828125 46.0625 210.566406 C 51.40625 183.304688 66.371094 159.253906 89.355469 143.753906 C 129.980469 115.957031 185.035156 120.234375 220.3125 154.441406 C 222.453125 156.582031 225.660156 156.582031 227.796875 154.441406 C 229.933594 152.304688 229.933594 149.097656 227.796875 146.960938 C 188.777344 109.542969 127.84375 104.730469 83.476562 135.199219 C 58.355469 152.304688 41.25 178.496094 35.371094 208.964844 C 32.699219 222.328125 32.699219 235.6875 34.835938 249.050781 C 29.492188 254.933594 24.144531 261.347656 19.871094 268.292969 C 17.195312 272.570312 15.058594 277.382812 13.457031 282.726562 C 11.851562 288.070312 10.78125 293.417969 12.386719 299.296875 C 12.921875 301.96875 14.523438 305.175781 16.664062 307.316406 C 18.800781 309.453125 21.472656 311.054688 23.609375 312.660156 C 28.957031 315.332031 34.300781 316.402344 40.179688 316.402344 C 49.800781 316.9375 59.421875 315.332031 69.046875 313.195312 C 85.082031 328.695312 104.859375 338.851562 127.308594 343.128906 C 134.257812 344.195312 141.738281 345.265625 148.6875 345.265625 C 171.671875 345.265625 194.121094 338.316406 213.363281 324.953125 C 227.796875 314.796875 240.089844 301.96875 248.644531 286.46875 C 250.78125 283.796875 249.710938 280.589844 247.039062 278.984375 Z M 27.351562 306.246094 C 22.542969 304.640625 19.335938 301.96875 18.265625 297.691406 C 16.664062 293.417969 17.195312 288.605469 18.265625 283.796875 C 19.335938 278.984375 20.9375 274.175781 23.078125 269.363281 C 26.285156 262.414062 31.09375 255.464844 35.90625 249.585938 C 38.578125 265.621094 44.992188 281.125 54.078125 295.019531 C 56.214844 298.226562 58.890625 301.433594 61.5625 304.640625 C 54.613281 306.78125 47.664062 307.847656 40.714844 308.382812 C 35.90625 308.382812 31.628906 307.847656 27.351562 306.246094 Z M 241.695312 174.21875 L 219.246094 188.652344 C 206.949219 181.167969 193.585938 180.097656 183.433594 186.511719 C 176.484375 190.789062 172.207031 198.273438 170.601562 207.359375 C 174.34375 208.429688 178.621094 210.03125 182.363281 212.171875 C 190.378906 216.980469 197.863281 223.929688 203.742188 233.550781 C 209.625 243.171875 212.832031 252.792969 213.898438 262.414062 C 214.433594 266.691406 213.898438 270.96875 213.363281 275.242188 C 221.917969 277.382812 230.46875 276.847656 237.953125 272.570312 C 248.109375 266.15625 252.917969 253.328125 251.316406 238.894531 L 273.765625 224.464844 C 283.921875 218.050781 291.9375 209.496094 297.820312 199.875 C 303.699219 190.253906 307.441406 179.03125 308.507812 167.269531 C 286.058594 159.253906 261.472656 161.925781 241.695312 174.21875 Z M 248.109375 221.792969 C 239.554688 227.136719 228.867188 226.601562 224.589844 220.1875 C 220.3125 213.773438 224.054688 204.152344 233.140625 198.273438 C 241.695312 192.929688 252.382812 193.460938 256.660156 199.875 C 260.402344 206.289062 257.195312 216.445312 248.109375 221.792969 Z M 248.109375 221.792969 " fill-opacity="1" fill-rule="nonzero"/></g><g fill="#fbdc6a" fill-opacity="1"><g transform="translate(325.944305, 205.105971)"><g><path d="M 1.53125 0 L 10 -87.71875 L 39.71875 -87.71875 L 48.09375 0 L 31.453125 0 L 30.21875 -14.1875 L 19.609375 -14.1875 L 18.578125 0 Z M 20.9375 -28.1875 L 28.890625 -28.1875 L 25.015625 -72.796875 L 24.203125 -72.796875 Z M 20.9375 -28.1875 "/></g></g></g><g fill="#fbdc6a" fill-opacity="1"><g transform="translate(375.462239, 205.105971)"><g><path d="M 24.703125 0.8125 C 16.742188 0.8125 10.992188 -1.160156 7.453125 -5.109375 C 3.910156 -9.054688 2.140625 -15.421875 2.140625 -24.203125 L 2.140625 -32.78125 L 19.40625 -32.78125 L 19.40625 -21.84375 C 19.40625 -17.488281 20.800781 -15.3125 23.59375 -15.3125 C 25.15625 -15.3125 26.242188 -15.769531 26.859375 -16.6875 C 27.472656 -17.613281 27.78125 -19.164062 27.78125 -21.34375 C 27.78125 -24.195312 27.4375 -26.5625 26.75 -28.4375 C 26.070312 -30.3125 25.203125 -31.878906 24.140625 -33.140625 C 23.085938 -34.398438 21.203125 -36.351562 18.484375 -39 L 10.921875 -46.5625 C 5.066406 -52.28125 2.140625 -58.609375 2.140625 -65.546875 C 2.140625 -73.035156 3.859375 -78.738281 7.296875 -82.65625 C 10.734375 -86.570312 15.753906 -88.53125 22.359375 -88.53125 C 30.253906 -88.53125 35.9375 -86.4375 39.40625 -82.25 C 42.882812 -78.0625 44.625 -71.507812 44.625 -62.59375 L 26.75 -62.59375 L 26.65625 -68.625 C 26.65625 -69.78125 26.328125 -70.695312 25.671875 -71.375 C 25.023438 -72.050781 24.125 -72.390625 22.96875 -72.390625 C 21.613281 -72.390625 20.59375 -72.015625 19.90625 -71.265625 C 19.226562 -70.523438 18.890625 -69.503906 18.890625 -68.203125 C 18.890625 -65.347656 20.523438 -62.390625 23.796875 -59.328125 L 34 -49.515625 C 36.382812 -47.203125 38.359375 -45.007812 39.921875 -42.9375 C 41.484375 -40.863281 42.738281 -38.410156 43.6875 -35.578125 C 44.644531 -32.753906 45.125 -29.40625 45.125 -25.53125 C 45.125 -16.882812 43.539062 -10.332031 40.375 -5.875 C 37.21875 -1.414062 31.992188 0.8125 24.703125 0.8125 Z M 24.703125 0.8125 "/></g></g></g><g fill="#fbdc6a" fill-opacity="1"><g transform="translate(422.529774, 205.105971)"><g><path d="M 11.4375 0 L 11.4375 -70.859375 L 1.015625 -70.859375 L 1.015625 -87.71875 L 39.421875 -87.71875 L 39.421875 -70.859375 L 29 -70.859375 L 29 0 Z M 11.4375 0 "/></g></g></g><g fill="#fbdc6a" fill-opacity="1"><g transform="translate(462.960898, 205.105971)"><g><path d="M 3.875 -87.71875 L 30.84375 -87.71875 C 35.125 -87.71875 38.4375 -86.742188 40.78125 -84.796875 C 43.132812 -82.859375 44.71875 -80.132812 45.53125 -76.625 C 46.351562 -73.125 46.765625 -68.648438 46.765625 -63.203125 C 46.765625 -58.234375 46.117188 -54.351562 44.828125 -51.5625 C 43.535156 -48.769531 41.289062 -46.832031 38.09375 -45.75 C 40.738281 -45.195312 42.65625 -43.863281 43.84375 -41.75 C 45.039062 -39.644531 45.640625 -36.789062 45.640625 -33.1875 L 45.4375 0 L 28.28125 0 L 28.28125 -34.3125 C 28.28125 -36.757812 27.800781 -38.320312 26.84375 -39 C 25.894531 -39.6875 24.160156 -40.03125 21.640625 -40.03125 L 21.640625 0 L 3.875 0 Z M 25.9375 -55.234375 C 28.382812 -55.234375 29.609375 -57.890625 29.609375 -63.203125 C 29.609375 -65.515625 29.503906 -67.25 29.296875 -68.40625 C 29.097656 -69.570312 28.722656 -70.375 28.171875 -70.8125 C 27.628906 -71.257812 26.847656 -71.484375 25.828125 -71.484375 L 21.75 -71.484375 L 21.75 -55.234375 Z M 25.9375 -55.234375 "/></g></g></g><g fill="#fbdc6a" fill-opacity="1"><g transform="translate(511.662048, 205.105971)"><g><path d="M 24.8125 0.8125 C 17.726562 0.8125 12.347656 -1.347656 8.671875 -5.671875 C 5.003906 -9.992188 3.171875 -16.066406 3.171875 -23.890625 L 3.171875 -65.65625 C 3.171875 -73.207031 5.003906 -78.90625 8.671875 -82.75 C 12.347656 -86.601562 17.726562 -88.53125 24.8125 -88.53125 C 31.894531 -88.53125 37.269531 -86.601562 40.9375 -82.75 C 44.613281 -78.90625 46.453125 -73.207031 46.453125 -65.65625 L 46.453125 -23.890625 C 46.453125 -15.992188 44.613281 -9.898438 40.9375 -5.609375 C 37.269531 -1.328125 31.894531 0.8125 24.8125 0.8125 Z M 24.8125 -15.3125 C 26.375 -15.3125 27.425781 -15.992188 27.96875 -17.359375 C 28.519531 -18.722656 28.796875 -20.628906 28.796875 -23.078125 L 28.796875 -65.96875 C 28.796875 -67.875 28.539062 -69.421875 28.03125 -70.609375 C 27.519531 -71.796875 26.484375 -72.390625 24.921875 -72.390625 C 21.992188 -72.390625 20.53125 -70.179688 20.53125 -65.765625 L 20.53125 -22.96875 C 20.53125 -20.457031 20.832031 -18.550781 21.4375 -17.25 C 22.050781 -15.957031 23.175781 -15.3125 24.8125 -15.3125 Z M 24.8125 -15.3125 "/></g></g></g><g fill="#fbdc6a" fill-opacity="1"><g transform="translate(561.282071, 205.105971)"><g><path d="M 24.703125 0.8125 C 16.742188 0.8125 10.992188 -1.160156 7.453125 -5.109375 C 3.910156 -9.054688 2.140625 -15.421875 2.140625 -24.203125 L 2.140625 -32.78125 L 19.40625 -32.78125 L 19.40625 -21.84375 C 19.40625 -17.488281 20.800781 -15.3125 23.59375 -15.3125 C 25.15625 -15.3125 26.242188 -15.769531 26.859375 -16.6875 C 27.472656 -17.613281 27.78125 -19.164062 27.78125 -21.34375 C 27.78125 -24.195312 27.4375 -26.5625 26.75 -28.4375 C 26.070312 -30.3125 25.203125 -31.878906 24.140625 -33.140625 C 23.085938 -34.398438 21.203125 -36.351562 18.484375 -39 L 10.921875 -46.5625 C 5.066406 -52.28125 2.140625 -58.609375 2.140625 -65.546875 C 2.140625 -73.035156 3.859375 -78.738281 7.296875 -82.65625 C 10.734375 -86.570312 15.753906 -88.53125 22.359375 -88.53125 C 30.253906 -88.53125 35.9375 -86.4375 39.40625 -82.25 C 42.882812 -78.0625 44.625 -71.507812 44.625 -62.59375 L 26.75 -62.59375 L 26.65625 -68.625 C 26.65625 -69.78125 26.328125 -70.695312 25.671875 -71.375 C 25.023438 -72.050781 24.125 -72.390625 22.96875 -72.390625 C 21.613281 -72.390625 20.59375 -72.015625 19.90625 -71.265625 C 19.226562 -70.523438 18.890625 -69.503906 18.890625 -68.203125 C 18.890625 -65.347656 20.523438 -62.390625 23.796875 -59.328125 L 34 -49.515625 C 36.382812 -47.203125 38.359375 -45.007812 39.921875 -42.9375 C 41.484375 -40.863281 42.738281 -38.410156 43.6875 -35.578125 C 44.644531 -32.753906 45.125 -29.40625 45.125 -25.53125 C 45.125 -16.882812 43.539062 -10.332031 40.375 -5.875 C 37.21875 -1.414062 31.992188 0.8125 24.703125 0.8125 Z M 24.703125 0.8125 "/></g></g></g><g fill="#fbdc6a" fill-opacity="1"><g transform="translate(608.349606, 205.105971)"><g><path d="M 24.8125 0.8125 C 17.726562 0.8125 12.347656 -1.347656 8.671875 -5.671875 C 5.003906 -9.992188 3.171875 -16.066406 3.171875 -23.890625 L 3.171875 -65.65625 C 3.171875 -73.207031 5.003906 -78.90625 8.671875 -82.75 C 12.347656 -86.601562 17.726562 -88.53125 24.8125 -88.53125 C 31.894531 -88.53125 37.269531 -86.601562 40.9375 -82.75 C 44.613281 -78.90625 46.453125 -73.207031 46.453125 -65.65625 L 46.453125 -23.890625 C 46.453125 -15.992188 44.613281 -9.898438 40.9375 -5.609375 C 37.269531 -1.328125 31.894531 0.8125 24.8125 0.8125 Z M 24.8125 -15.3125 C 26.375 -15.3125 27.425781 -15.992188 27.96875 -17.359375 C 28.519531 -18.722656 28.796875 -20.628906 28.796875 -23.078125 L 28.796875 -65.96875 C 28.796875 -67.875 28.539062 -69.421875 28.03125 -70.609375 C 27.519531 -71.796875 26.484375 -72.390625 24.921875 -72.390625 C 21.992188 -72.390625 20.53125 -70.179688 20.53125 -65.765625 L 20.53125 -22.96875 C 20.53125 -20.457031 20.832031 -18.550781 21.4375 -17.25 C 22.050781 -15.957031 23.175781 -15.3125 24.8125 -15.3125 Z M 24.8125 -15.3125 "/></g></g></g><g fill="#fbdc6a" fill-opacity="1"><g transform="translate(657.969629, 205.105971)"><g><path d="M 3.875 0 L 3.875 -87.71875 L 39 -87.71875 L 39 -70.65625 L 21.546875 -70.65625 L 21.546875 -56.671875 L 38.09375 -56.671875 L 38.09375 -39.828125 L 21.546875 -39.828125 L 21.546875 0 Z M 3.875 0 "/></g></g></g><g fill="#fbdc6a" fill-opacity="1"><g transform="translate(698.707059, 205.105971)"><g><path d="M 11.4375 0 L 11.4375 -70.859375 L 1.015625 -70.859375 L 1.015625 -87.71875 L 39.421875 -87.71875 L 39.421875 -70.859375 L 29 -70.859375 L 29 0 Z M 11.4375 0 "/></g></g></g><path stroke-linecap="butt" transform="matrix(2.837317, 0, 0, 2.837317, 325.944305, 213.683494)" fill="none" stroke-linejoin="miter" d="M 7.740391 39.289457 C 5.508694 39.289457 3.845591 38.504715 2.749706 36.935231 C 1.660704 35.358863 1.115515 32.975725 1.115515 29.783064 L 1.115515 16.471359 C 1.115515 13.611869 1.751569 11.454517 3.022301 9.995172 C 4.294409 8.53032 6.188804 7.799271 8.706862 7.799271 C 10.745815 7.799271 12.32769 8.205409 13.452487 9.020439 C 14.582791 9.834093 15.36478 11.023597 15.798453 12.587574 C 16.232126 14.146045 16.448275 16.149202 16.448275 18.597047 L 10.403007 18.597047 L 10.403007 15.821538 C 10.403007 15.076721 10.301128 14.50262 10.095994 14.099235 C 9.890859 13.688967 9.524646 13.483832 8.997355 13.483832 C 7.820241 13.483832 7.230997 14.250677 7.230997 15.785743 L 7.230997 30.757796 C 7.230997 31.695356 7.35215 32.404378 7.591703 32.88486 C 7.831255 33.365343 8.253915 33.604896 8.856927 33.604896 C 9.454433 33.604896 9.872962 33.365343 10.113891 32.88486 C 10.353444 32.404378 10.473221 31.695356 10.473221 30.757796 L 10.473221 26.330198 L 8.821132 26.330198 L 8.821132 21.004966 L 16.378061 21.004966 L 16.378061 39.000342 L 13.891667 39.000342 L 12.846721 36.407939 C 11.745329 38.329869 10.043677 39.289457 7.740391 39.289457 Z M 22.56651 39.000342 L 22.56651 28.816592 L 17.628141 8.088386 L 23.751883 8.088386 L 25.474186 18.552991 L 27.206125 8.088386 L 33.321607 8.088386 L 28.391499 28.816592 L 28.391499 39.000342 Z M 34.871817 39.000342 L 34.871817 8.088386 L 44.299736 8.088386 L 46.892139 26.944225 L 49.484541 8.088386 L 58.982674 8.088386 L 58.982674 39.000342 L 53.332531 39.000342 L 53.332531 16.726056 L 49.765396 39.000342 L 44.229522 39.000342 L 40.451746 16.726056 L 40.451746 39.000342 Z M 34.871817 39.000342 " stroke="#760504" stroke-width="1.349996" stroke-opacity="1" stroke-miterlimit="4"/></svg>