<svg xmlns="http://www.w3.org/2000/svg" xmlns:xlink="http://www.w3.org/1999/xlink" width="360" zoomAndPan="magnify" viewBox="0 0 270 131.249995" height="175" preserveAspectRatio="xMidYMid meet" version="1.0"><defs><g/><clipPath id="9f7ca381e2"><path d="M 55 6 L 215 6 L 215 129.785156 L 55 129.785156 Z M 55 6 " clip-rule="nonzero"/></clipPath></defs><g clip-path="url(#9f7ca381e2)"><path fill="#ffffff" d="M 181.941406 94.25 C 180.507812 93.386719 178.785156 93.960938 177.921875 95.398438 C 173.617188 102.863281 167.875 109.179688 160.695312 114.058594 C 148.351562 122.386719 133.421875 125.542969 118.777344 122.960938 C 109.015625 121.238281 100.402344 116.929688 92.9375 110.613281 L 100.113281 108.316406 C 104.132812 107.167969 108.152344 105.445312 111.886719 104.011719 C 116.769531 102 121.363281 99.703125 126.242188 97.121094 C 126.816406 96.832031 127.679688 96.546875 128.253906 96.257812 C 134.28125 93.675781 138.875 90.804688 142.320312 88.21875 C 142.035156 89.941406 140.886719 93.386719 138.015625 96.832031 C 134.855469 100.566406 130.835938 102 129.113281 102.574219 C 132.558594 102.574219 138.589844 102.289062 145.480469 99.417969 C 151.796875 96.546875 156.101562 92.527344 158.113281 90.230469 C 158.113281 87.644531 158.113281 80.179688 153.519531 73.003906 C 148.351562 64.964844 140.886719 62.09375 138.300781 61.230469 C 135.144531 62.667969 129.6875 65.25 124.808594 70.707031 C 118.492188 77.597656 116.480469 85.0625 115.90625 88.507812 C 116.769531 87.070312 119.925781 82.191406 126.242188 80.46875 C 129.113281 79.605469 131.699219 79.894531 133.421875 80.179688 C 129.6875 82.765625 125.667969 85.921875 121.648438 89.082031 C 117.34375 91.953125 113.035156 94.535156 108.441406 96.832031 C 104.996094 98.84375 101.261719 100.566406 97.53125 102 L 88.054688 106.019531 C 86.046875 104.011719 84.324219 102 82.886719 99.417969 C 74.5625 87.070312 71.402344 72.140625 73.988281 57.5 C 76.859375 42.855469 84.898438 29.933594 97.242188 21.609375 C 119.066406 6.679688 148.636719 8.976562 167.585938 27.351562 C 168.734375 28.5 170.457031 28.5 171.605469 27.351562 C 172.753906 26.203125 172.753906 24.480469 171.605469 23.332031 C 150.648438 3.234375 117.917969 0.648438 94.085938 17.015625 C 80.589844 26.203125 71.402344 40.269531 68.246094 56.636719 C 66.808594 63.816406 66.808594 70.992188 67.957031 78.171875 C 65.085938 81.328125 62.214844 84.773438 59.917969 88.507812 C 58.484375 90.804688 57.335938 93.386719 56.472656 96.257812 C 55.613281 99.128906 55.039062 102 55.898438 105.160156 C 56.1875 106.59375 57.046875 108.316406 58.195312 109.464844 C 59.34375 110.613281 60.78125 111.476562 61.929688 112.335938 C 64.800781 113.773438 67.671875 114.347656 70.828125 114.347656 C 75.996094 114.632812 81.164062 113.773438 86.332031 112.625 C 94.945312 120.949219 105.570312 126.40625 117.628906 128.703125 C 121.363281 129.277344 125.382812 129.851562 129.113281 129.851562 C 141.460938 129.851562 153.519531 126.117188 163.855469 118.941406 C 171.605469 113.484375 178.210938 106.59375 182.804688 98.269531 C 183.953125 96.832031 183.378906 95.109375 181.941406 94.25 Z M 63.9375 108.890625 C 61.355469 108.03125 59.632812 106.59375 59.058594 104.296875 C 58.195312 102 58.484375 99.417969 59.058594 96.832031 C 59.632812 94.25 60.492188 91.664062 61.640625 89.082031 C 63.363281 85.347656 65.949219 81.617188 68.53125 78.457031 C 69.96875 87.070312 73.414062 95.398438 78.292969 102.863281 C 79.441406 104.585938 80.878906 106.308594 82.3125 108.03125 C 78.582031 109.179688 74.847656 109.753906 71.117188 110.039062 C 68.53125 110.039062 66.234375 109.753906 63.9375 108.890625 Z M 179.070312 37.972656 L 167.011719 45.726562 C 160.410156 41.707031 153.230469 41.132812 147.777344 44.578125 C 144.042969 46.875 141.746094 50.894531 140.886719 55.777344 C 142.894531 56.351562 145.191406 57.210938 147.203125 58.359375 C 151.507812 60.945312 155.527344 64.675781 158.6875 69.84375 C 161.84375 75.011719 163.566406 80.179688 164.140625 85.347656 C 164.429688 87.644531 164.140625 89.941406 163.855469 92.238281 C 168.449219 93.386719 173.042969 93.101562 177.0625 90.804688 C 182.515625 87.359375 185.101562 80.46875 184.238281 72.714844 L 196.296875 64.964844 C 201.753906 61.519531 206.058594 56.925781 209.21875 51.757812 C 212.378906 46.585938 214.386719 40.558594 214.960938 34.242188 C 202.902344 29.933594 189.695312 31.371094 179.070312 37.972656 Z M 182.515625 63.527344 C 177.921875 66.398438 172.179688 66.113281 169.882812 62.667969 C 167.585938 59.222656 169.597656 54.054688 174.476562 50.894531 C 179.070312 48.023438 184.8125 48.308594 187.109375 51.757812 C 189.121094 55.203125 187.398438 60.65625 182.515625 63.527344 Z M 182.515625 63.527344 " fill-opacity="1" fill-rule="nonzero"/></g><g fill="#ffffff" fill-opacity="1"><g transform="translate(94.485963, 88.681687)"><g><path d="M 0.109375 -0.078125 L -3.671875 -6.953125 L -1.484375 -8.4375 L 3.53125 -2.421875 L 2.3125 -1.578125 L 1.5 -2.5625 L 0.71875 -2.03125 L 1.375 -0.9375 Z M 0.109375 -3.125 L 0.703125 -3.53125 L -1.8125 -6.625 L -1.875 -6.578125 Z M 0.109375 -3.125 "/></g></g></g><g fill="#ffffff" fill-opacity="1"><g transform="translate(98.125598, 86.196148)"><g><path d="M 1.859375 -1.1875 C 1.273438 -0.78125 0.75 -0.632812 0.28125 -0.75 C -0.175781 -0.863281 -0.625 -1.242188 -1.0625 -1.890625 L -1.484375 -2.515625 L -0.203125 -3.390625 L 0.34375 -2.59375 C 0.5625 -2.269531 0.769531 -2.175781 0.96875 -2.3125 C 1.082031 -2.382812 1.132812 -2.46875 1.125 -2.5625 C 1.125 -2.664062 1.066406 -2.800781 0.953125 -2.96875 C 0.816406 -3.175781 0.675781 -3.332031 0.53125 -3.4375 C 0.394531 -3.539062 0.253906 -3.613281 0.109375 -3.65625 C -0.0234375 -3.695312 -0.257812 -3.738281 -0.59375 -3.78125 L -1.53125 -3.96875 C -2.25 -4.09375 -2.785156 -4.414062 -3.140625 -4.9375 C -3.515625 -5.488281 -3.671875 -5.992188 -3.609375 -6.453125 C -3.554688 -6.910156 -3.289062 -7.304688 -2.8125 -7.640625 C -2.226562 -8.035156 -1.703125 -8.164062 -1.234375 -8.03125 C -0.765625 -7.894531 -0.304688 -7.5 0.140625 -6.84375 L -1.171875 -5.953125 L -1.484375 -6.390625 C -1.535156 -6.472656 -1.601562 -6.523438 -1.6875 -6.546875 C -1.78125 -6.566406 -1.867188 -6.546875 -1.953125 -6.484375 C -2.054688 -6.410156 -2.113281 -6.328125 -2.125 -6.234375 C -2.132812 -6.148438 -2.101562 -6.0625 -2.03125 -5.96875 C -1.882812 -5.757812 -1.617188 -5.625 -1.234375 -5.5625 L 0.015625 -5.34375 C 0.304688 -5.289062 0.5625 -5.226562 0.78125 -5.15625 C 1 -5.082031 1.210938 -4.96875 1.421875 -4.8125 C 1.628906 -4.65625 1.832031 -4.4375 2.03125 -4.15625 C 2.457031 -3.507812 2.671875 -2.941406 2.671875 -2.453125 C 2.671875 -1.960938 2.398438 -1.539062 1.859375 -1.1875 Z M 1.859375 -1.1875 "/></g></g></g><g fill="#ffffff" fill-opacity="1"><g transform="translate(101.585133, 83.833601)"><g><path d="M 0.84375 -0.578125 L -2.71875 -5.796875 L -3.484375 -5.265625 L -4.328125 -6.5 L -1.5 -8.4375 L -0.65625 -7.203125 L -1.4375 -6.671875 L 2.125 -1.453125 Z M 0.84375 -0.578125 "/></g></g></g><g fill="#ffffff" fill-opacity="1"><g transform="translate(104.556876, 81.804172)"><g><path d="M -4.125 -6.640625 L -2.140625 -8 C -1.828125 -8.21875 -1.53125 -8.316406 -1.25 -8.296875 C -0.976562 -8.273438 -0.726562 -8.15625 -0.5 -7.9375 C -0.269531 -7.71875 -0.015625 -7.40625 0.265625 -7 C 0.515625 -6.644531 0.660156 -6.328125 0.703125 -6.046875 C 0.742188 -5.773438 0.675781 -5.519531 0.5 -5.28125 C 0.726562 -5.363281 0.9375 -5.359375 1.125 -5.265625 C 1.320312 -5.179688 1.507812 -5.003906 1.6875 -4.734375 L 3.34375 -2.28125 L 2.078125 -1.421875 L 0.34375 -3.953125 C 0.226562 -4.128906 0.117188 -4.21875 0.015625 -4.21875 C -0.0859375 -4.21875 -0.234375 -4.148438 -0.421875 -4.015625 L 1.59375 -1.078125 L 0.28125 -0.1875 Z M -0.875 -5.359375 C -0.6875 -5.484375 -0.722656 -5.738281 -0.984375 -6.125 C -1.097656 -6.300781 -1.195312 -6.425781 -1.28125 -6.5 C -1.363281 -6.570312 -1.429688 -6.609375 -1.484375 -6.609375 C -1.546875 -6.617188 -1.617188 -6.597656 -1.703125 -6.546875 L -2 -6.34375 L -1.1875 -5.15625 Z M -0.875 -5.359375 "/></g></g></g><g fill="#ffffff" fill-opacity="1"><g transform="translate(108.13648, 79.359628)"><g><path d="M 1.859375 -1.1875 C 1.347656 -0.832031 0.847656 -0.71875 0.359375 -0.84375 C -0.128906 -0.976562 -0.570312 -1.332031 -0.96875 -1.90625 L -3.0625 -4.984375 C -3.445312 -5.546875 -3.597656 -6.0625 -3.515625 -6.53125 C -3.441406 -7 -3.148438 -7.410156 -2.640625 -7.765625 C -2.109375 -8.117188 -1.609375 -8.242188 -1.140625 -8.140625 C -0.679688 -8.046875 -0.257812 -7.71875 0.125 -7.15625 L 2.21875 -4.078125 C 2.613281 -3.503906 2.785156 -2.96875 2.734375 -2.46875 C 2.679688 -1.96875 2.390625 -1.539062 1.859375 -1.1875 Z M 1.046875 -2.375 C 1.171875 -2.445312 1.210938 -2.546875 1.171875 -2.671875 C 1.140625 -2.804688 1.066406 -2.960938 0.953125 -3.140625 L -1.203125 -6.296875 C -1.296875 -6.429688 -1.390625 -6.53125 -1.484375 -6.59375 C -1.585938 -6.65625 -1.695312 -6.648438 -1.8125 -6.578125 C -2.019531 -6.429688 -2.007812 -6.195312 -1.78125 -5.875 L 0.359375 -2.71875 C 0.492188 -2.53125 0.613281 -2.40625 0.71875 -2.34375 C 0.820312 -2.28125 0.929688 -2.289062 1.046875 -2.375 Z M 1.046875 -2.375 "/></g></g></g><g fill="#ffffff" fill-opacity="1"><g transform="translate(111.783626, 76.86896)"><g><path d="M 1.859375 -1.1875 C 1.273438 -0.78125 0.75 -0.632812 0.28125 -0.75 C -0.175781 -0.863281 -0.625 -1.242188 -1.0625 -1.890625 L -1.484375 -2.515625 L -0.203125 -3.390625 L 0.34375 -2.59375 C 0.5625 -2.269531 0.769531 -2.175781 0.96875 -2.3125 C 1.082031 -2.382812 1.132812 -2.46875 1.125 -2.5625 C 1.125 -2.664062 1.066406 -2.800781 0.953125 -2.96875 C 0.816406 -3.175781 0.675781 -3.332031 0.53125 -3.4375 C 0.394531 -3.539062 0.253906 -3.613281 0.109375 -3.65625 C -0.0234375 -3.695312 -0.257812 -3.738281 -0.59375 -3.78125 L -1.53125 -3.96875 C -2.25 -4.09375 -2.785156 -4.414062 -3.140625 -4.9375 C -3.515625 -5.488281 -3.671875 -5.992188 -3.609375 -6.453125 C -3.554688 -6.910156 -3.289062 -7.304688 -2.8125 -7.640625 C -2.226562 -8.035156 -1.703125 -8.164062 -1.234375 -8.03125 C -0.765625 -7.894531 -0.304688 -7.5 0.140625 -6.84375 L -1.171875 -5.953125 L -1.484375 -6.390625 C -1.535156 -6.472656 -1.601562 -6.523438 -1.6875 -6.546875 C -1.78125 -6.566406 -1.867188 -6.546875 -1.953125 -6.484375 C -2.054688 -6.410156 -2.113281 -6.328125 -2.125 -6.234375 C -2.132812 -6.148438 -2.101562 -6.0625 -2.03125 -5.96875 C -1.882812 -5.757812 -1.617188 -5.625 -1.234375 -5.5625 L 0.015625 -5.34375 C 0.304688 -5.289062 0.5625 -5.226562 0.78125 -5.15625 C 1 -5.082031 1.210938 -4.96875 1.421875 -4.8125 C 1.628906 -4.65625 1.832031 -4.4375 2.03125 -4.15625 C 2.457031 -3.507812 2.671875 -2.941406 2.671875 -2.453125 C 2.671875 -1.960938 2.398438 -1.539062 1.859375 -1.1875 Z M 1.859375 -1.1875 "/></g></g></g><g fill="#ffffff" fill-opacity="1"><g transform="translate(115.24316, 74.506414)"><g><path d="M 1.859375 -1.1875 C 1.347656 -0.832031 0.847656 -0.71875 0.359375 -0.84375 C -0.128906 -0.976562 -0.570312 -1.332031 -0.96875 -1.90625 L -3.0625 -4.984375 C -3.445312 -5.546875 -3.597656 -6.0625 -3.515625 -6.53125 C -3.441406 -7 -3.148438 -7.410156 -2.640625 -7.765625 C -2.109375 -8.117188 -1.609375 -8.242188 -1.140625 -8.140625 C -0.679688 -8.046875 -0.257812 -7.71875 0.125 -7.15625 L 2.21875 -4.078125 C 2.613281 -3.503906 2.785156 -2.96875 2.734375 -2.46875 C 2.679688 -1.96875 2.390625 -1.539062 1.859375 -1.1875 Z M 1.046875 -2.375 C 1.171875 -2.445312 1.210938 -2.546875 1.171875 -2.671875 C 1.140625 -2.804688 1.066406 -2.960938 0.953125 -3.140625 L -1.203125 -6.296875 C -1.296875 -6.429688 -1.390625 -6.53125 -1.484375 -6.59375 C -1.585938 -6.65625 -1.695312 -6.648438 -1.8125 -6.578125 C -2.019531 -6.429688 -2.007812 -6.195312 -1.78125 -5.875 L 0.359375 -2.71875 C 0.492188 -2.53125 0.613281 -2.40625 0.71875 -2.34375 C 0.820312 -2.28125 0.929688 -2.289062 1.046875 -2.375 Z M 1.046875 -2.375 "/></g></g></g><g fill="#ffffff" fill-opacity="1"><g transform="translate(118.890305, 72.015746)"><g><path d="M 0.28125 -0.1875 L -4.125 -6.640625 L -1.546875 -8.40625 L -0.6875 -7.15625 L -1.953125 -6.28125 L -1.25 -5.25 L -0.046875 -6.078125 L 0.796875 -4.828125 L -0.40625 -4 L 1.59375 -1.078125 Z M 0.28125 -0.1875 "/></g></g></g><g fill="#ffffff" fill-opacity="1"><g transform="translate(121.884568, 69.970938)"><g><path d="M 0.84375 -0.578125 L -2.71875 -5.796875 L -3.484375 -5.265625 L -4.328125 -6.5 L -1.5 -8.4375 L -0.65625 -7.203125 L -1.4375 -6.671875 L 2.125 -1.453125 Z M 0.84375 -0.578125 "/></g></g></g></svg>